<?xml version="1.0" encoding="UTF-8"?>
<svg version="1.1" xmlns="http://www.w3.org/2000/svg" width="500" height="500">
<path d="M0 0 C165 0 330 0 500 0 C500 165 500 330 500 500 C335 500 170 500 0 500 C0 335 0 170 0 0 Z " fill="#000000" transform="translate(0,0)"/>
<path d="M0 0 C2.70335659 2.70335659 3.09479075 5.66323249 3.9453125 9.2734375 C4.12005096 9.99359039 4.29478943 10.71374329 4.474823 11.45571899 C4.84292503 12.97974678 5.20751048 14.50462759 5.56884766 16.03027344 C6.12166844 18.3609542 6.68687102 20.68836658 7.25390625 23.015625 C7.61011743 24.49721753 7.96560993 25.97898307 8.3203125 27.4609375 C8.48902863 28.15585297 8.65774475 28.85076843 8.83157349 29.56674194 C9.60237059 32.84592484 10 35.60361872 10 39 C39.7 39 69.4 39 100 39 C100.99 29.43 101.98 19.86 103 10 C103.33 8.35 103.66 6.7 104 5 C106.34065586 8.51098378 107.60759491 12.15097897 109.00390625 16.09765625 C109.42892677 17.28276039 109.42892677 17.28276039 109.86253357 18.49180603 C110.7663672 21.01401474 111.66466989 23.53814867 112.5625 26.0625 C113.46487464 28.5900612 114.36839589 31.11720528 115.2731781 33.64390564 C115.83572403 35.21588653 116.39669437 36.7884323 116.95594788 38.36158752 C118.32398481 42.24469185 118.32398481 42.24469185 120 46 C120.28813813 48.66397068 120.52437047 51.31343895 120.72436523 53.984375 C120.78957367 54.81097122 120.8547821 55.63756744 120.92196655 56.48921204 C121.13815855 59.242513 121.3483785 61.99623677 121.55859375 64.75 C121.70895399 66.68028531 121.85968113 68.61054208 122.01075745 70.54077148 C122.40988539 75.65318032 122.8039608 80.76596681 123.19702148 85.87884521 C123.58990541 90.97805978 123.98751421 96.0769054 124.38476562 101.17578125 C125.06345188 109.89265529 125.73581553 118.6100019 126.40584373 127.32754517 C126.81671946 132.66061453 127.2378337 137.99270752 127.66845703 143.32421875 C127.76409439 144.52103271 127.85973175 145.71784668 127.95826721 146.95092773 C128.12572993 149.04054392 128.29605796 151.12993413 128.47032166 153.21899414 C128.94266821 159.15884566 129.08997816 165.04204884 129 171 C130.10408203 170.7834375 130.10408203 170.7834375 131.23046875 170.5625 C132.20628906 170.376875 133.18210937 170.19125 134.1875 170 C135.15042969 169.814375 136.11335937 169.62875 137.10546875 169.4375 C139.7934206 169.03122388 142.28771019 168.92066428 145 169 C141.73072236 175.74723258 138.41911785 182.21125536 134.1015625 188.35546875 C132.45401991 192.31073944 132.21703092 195.78568001 133 200 C134.45512289 202.95931469 136.38455266 205.35834713 138.5 207.875 C139.6267442 209.27203255 140.75174458 210.67047333 141.875 212.0703125 C142.4215625 212.74223633 142.968125 213.41416016 143.53125 214.10644531 C145.40902241 216.52732344 146.91938916 219.12831376 148.5 221.75 C152.92779065 228.04412822 159.57468591 231.33855906 166.20703125 234.94238281 C167.06554687 235.41385742 167.9240625 235.88533203 168.80859375 236.37109375 C169.98119751 236.9887561 169.98119751 236.9887561 171.17749023 237.61889648 C173 239 173 239 173.9362793 240.9206543 C174.02440962 243.79653911 173.06741461 244.73317082 171.2109375 246.8984375 C170.59863281 247.62546875 169.98632812 248.3525 169.35546875 249.1015625 C168.70191406 249.85179687 168.04835938 250.60203125 167.375 251.375 C166.74464844 252.1175 166.11429688 252.86 165.46484375 253.625 C164.22873559 255.07954723 162.98764667 256.52987885 161.74121094 257.97558594 C159.46260057 260.62480596 157.22941322 263.30932888 155 266 C150.91068059 264.35044362 148.02035178 261.42596684 144.875 258.4375 C141.23596593 254.81366093 141.23596593 254.81366093 137 252 C137 261.9 137 271.8 137 282 C139.97 282 142.94 282 146 282 C146 285.96 146 289.92 146 294 C144.35 294.66 142.7 295.32 141 296 C141 302.6 141 309.2 141 316 C140.34 316 139.68 316 139 316 C139.03480469 317.13179688 139.06960938 318.26359375 139.10546875 319.4296875 C139.13360336 320.91144353 139.16090387 322.39321556 139.1875 323.875 C139.21263672 324.62136719 139.23777344 325.36773437 139.26367188 326.13671875 C139.29296875 328.3046875 139.29296875 328.3046875 139 332 C138.01 332.66 137.02 333.32 136 334 C137.40583054 335.50763954 138.81182792 337.01512374 140.21850586 338.52197266 C141.45952121 339.85319288 142.69858293 341.18623674 143.93579102 342.52099609 C147.34463037 346.1910017 150.7867602 349.81702225 154.3046875 353.3828125 C154.99554443 354.09244141 155.68640137 354.80207031 156.39819336 355.53320312 C157.74124288 356.91082174 159.09603406 358.27710508 160.46313477 359.63085938 C161.37663696 360.57541992 161.37663696 360.57541992 162.30859375 361.5390625 C163.12541626 362.36204834 163.12541626 362.36204834 163.95874023 363.20166016 C165 365 165 365 164.8684082 367.33251953 C163.22728214 372.37354944 160.42201227 376.85384428 157.79052734 381.43066406 C156.75045361 383.24920687 155.73649962 385.08079802 154.72265625 386.9140625 C154.06145074 388.07380455 153.39874067 389.23269037 152.734375 390.390625 C152.13850586 391.44282227 151.54263672 392.49501953 150.92871094 393.57910156 C149 396 149 396 146.51586914 396.98120117 C143.60320504 397.00296489 142.42474535 396.49922255 140.01171875 394.91015625 C139.30595703 394.45576172 138.60019531 394.00136719 137.87304688 393.53320312 C137.15181641 393.04787109 136.43058594 392.56253906 135.6875 392.0625 C134.94693359 391.58103516 134.20636719 391.09957031 133.44335938 390.60351562 C131.62023585 389.41554481 129.80891959 388.20948912 128 387 C130.66666667 381.66666667 133.33333333 376.33333333 136 371 C135.41734375 370.74605469 134.8346875 370.49210937 134.234375 370.23046875 C131.75811967 368.86679667 130.19479374 367.35774797 128.25 365.3125 C125.72296354 362.72078619 123.18699116 360.22913949 120.4375 357.875 C115.57418041 353.70089337 110.93475847 349.28876455 106.27905273 344.88623047 C104.53233748 343.24271481 102.77013058 341.61821029 101 340 C100.31164062 339.35933594 99.62328125 338.71867187 98.9140625 338.05859375 C96.15361045 336.53189476 94.22774211 336.92949318 91.125 337.3125 C86.29919665 337.88641267 81.61159967 338.03488103 76.74560547 338.02026367 C75.48295868 338.0173381 74.22031189 338.01441254 72.91940308 338.01139832 C71.95600006 338.00763687 70.99259705 338.00387543 70 338 C70.28188171 339.18270981 70.28188171 339.18270981 70.56945801 340.38931274 C72.34210919 347.8322369 74.10828605 355.2766538 75.86727142 362.72281837 C76.77173679 366.55060339 77.67866472 370.37776926 78.59130859 374.20361328 C79.47251177 377.89806364 80.34713068 381.59401688 81.2172699 385.2910881 C81.54983609 386.6989795 81.88474241 388.10632031 82.22206116 389.5130806 C82.6953103 391.48851518 83.15935926 393.46614689 83.62304688 395.44384766 C84.02275696 397.12929184 84.02275696 397.12929184 84.43054199 398.8487854 C85.33623759 403.8606408 85.50752604 407.73379357 83.21166992 412.3371582 C82.82093796 413.1343074 82.43020599 413.9314566 82.02763367 414.75276184 C81.59956924 415.59360825 81.17150482 416.43445465 80.73046875 417.30078125 C80.07525993 418.61625191 80.07525993 418.61625191 79.40681458 419.95829773 C78.4836609 421.80430683 77.55454627 423.6473455 76.61987305 425.48754883 C75.18754129 428.31241857 73.77915563 431.14833073 72.37304688 433.98632812 C71.47275758 435.77935118 70.5711114 437.57169372 69.66796875 439.36328125 C69.24597702 440.21424881 68.82398529 441.06521637 68.38920593 441.94197083 C67.98901749 442.72335922 67.58882904 443.50474762 67.17651367 444.30981445 C66.82787766 445.00009232 66.47924164 445.69037018 66.12004089 446.40156555 C65 448 65 448 62 449 C59.82348633 448.47094727 59.82348633 448.47094727 57.33203125 447.56640625 C55.99301758 447.0878418 55.99301758 447.0878418 54.62695312 446.59960938 C53.69818359 446.25736328 52.76941406 445.91511719 51.8125 445.5625 C50.87212891 445.22412109 49.93175781 444.88574219 48.96289062 444.53710938 C46.63885258 443.69951191 44.31821765 442.85354717 42 442 C43.43211347 436.56050088 45.15473998 431.43939543 47.55078125 426.34375 C48.00130859 425.38339844 48.45183594 424.42304688 48.91601562 423.43359375 C49.8506442 421.47022016 50.80135112 419.51442365 51.76757812 417.56640625 C52.21166016 416.60605469 52.65574219 415.64570313 53.11328125 414.65625 C53.52360596 413.80869141 53.93393066 412.96113281 54.35668945 412.08789062 C56.13049397 403.57362893 51.53803362 394.03989104 48.8671875 386.0625 C48.47048859 384.86061035 48.07378967 383.6587207 47.66506958 382.42041016 C46.62028417 379.25690417 45.57085304 376.09502972 44.51855469 372.934021 C43.02836847 368.45568917 41.54432862 363.97533296 40.06350708 359.49389648 C39.27658437 357.11343572 38.48653015 354.73400748 37.69308472 352.35571289 C37.33916656 351.28699951 36.98524841 350.21828613 36.62060547 349.1171875 C36.15000198 347.70348877 36.15000198 347.70348877 35.66989136 346.26123047 C35 344 35 344 35 342 C33.78183594 342.144375 32.56367188 342.28875 31.30859375 342.4375 C29.68491986 342.62520796 28.06122057 342.8126963 26.4375 343 C25.23770508 343.14308594 25.23770508 343.14308594 24.01367188 343.2890625 C23.22412109 343.37929688 22.43457031 343.46953125 21.62109375 343.5625 C20.9036499 343.64628906 20.18620605 343.73007812 19.44702148 343.81640625 C16.3062472 344.05205049 13.14960177 344 10 344 C10 337.73 10 331.46 10 325 C8.35 325 6.7 325 5 325 C4.67 318.73 4.34 312.46 4 306 C2.68 305.34 1.36 304.68 0 304 C0 299.71 0 295.42 0 291 C2.31 291 4.62 291 7 291 C6.97494385 290.38264481 6.9498877 289.76528961 6.92407227 289.12922668 C6.6594917 282.58951963 6.40090811 276.04959334 6.14550781 269.50952148 C6.04998007 267.08237955 5.95302124 264.65529343 5.85449219 262.22827148 C5.24321952 247.14293538 4.85320872 232.09809476 5 217 C4.25379395 216.71858154 3.50758789 216.43716309 2.73876953 216.1472168 C0.33579242 215.14065685 -1.65424109 214.07148674 -3.8203125 212.64453125 C-4.51552002 212.18973389 -5.21072754 211.73493652 -5.92700195 211.26635742 C-6.65234131 210.78658447 -7.37768066 210.30681152 -8.125 209.8125 C-8.87547607 209.32434814 -9.62595215 208.83619629 -10.39916992 208.33325195 C-13.76554274 206.14231183 -17.11442854 203.93312886 -20.41796875 201.6484375 C-21.37316406 201.00132812 -22.32835937 200.35421875 -23.3125 199.6875 C-24.54419922 198.82705078 -24.54419922 198.82705078 -25.80078125 197.94921875 C-27.93817431 196.74627261 -27.93817431 196.74627261 -30.00390625 197.60546875 C-33.11401884 199.77828713 -36.03543581 202.14512217 -38.9765625 204.5390625 C-41 206 -41 206 -43 206 C-45.60188486 203.08096579 -47.82217135 199.84533928 -50.125 196.6875 C-50.78371094 195.80642578 -51.44242188 194.92535156 -52.12109375 194.01757812 C-52.74371094 193.17001953 -53.36632812 192.32246094 -54.0078125 191.44921875 C-54.58160645 190.66893311 -55.15540039 189.88864746 -55.74658203 189.0847168 C-57 187 -57 187 -57 184 C-55.22753906 182.421875 -55.22753906 182.421875 -52.765625 180.75 C-51.88132813 180.1415625 -50.99703125 179.533125 -50.0859375 178.90625 C-49.15007812 178.2771875 -48.21421875 177.648125 -47.25 177 C-45.42163029 175.75035796 -43.59349678 174.50037026 -41.765625 173.25 C-40.94868164 172.69828125 -40.13173828 172.1465625 -39.29003906 171.578125 C-36.98735127 170.03392479 -36.98735127 170.03392479 -34.88354492 168.29125977 C-33 167 -33 167 -30.09765625 167.08984375 C-25.68399839 168.38666882 -22.41590904 170.87275632 -18.68359375 173.50390625 C-13.18806773 175.73591735 -7.85707932 175.2704276 -2 175 C-2.5309107 168.40599548 -3.06425408 161.81219063 -3.59912109 155.21850586 C-3.77999155 152.98547596 -3.96034835 150.75240439 -4.14013672 148.51928711 C-5.30950183 134.00021476 -6.58130883 119.49675056 -8 105 C-8.62967868 98.53613926 -9.2515075 92.0716172 -9.85986328 85.60571289 C-10.03715858 83.7379085 -10.21751601 81.87039233 -10.40087891 80.00317383 C-12.15786466 62.06974817 -13.67521247 45.69917627 -8.25 28.25 C-7.90195313 27.06535156 -7.55390625 25.88070312 -7.1953125 24.66015625 C-6.49996373 22.29854579 -5.79509311 19.93971514 -5.08007812 17.58398438 C-3.3194859 11.74187455 -1.6629165 5.87056527 0 0 Z " fill="#BBBBBB" transform="translate(206,17)"/>
<path d="M0 0 C2.70335659 2.70335659 3.09479075 5.66323249 3.9453125 9.2734375 C4.12005096 9.99359039 4.29478943 10.71374329 4.474823 11.45571899 C4.84292503 12.97974678 5.20751048 14.50462759 5.56884766 16.03027344 C6.12166844 18.3609542 6.68687102 20.68836658 7.25390625 23.015625 C7.61011743 24.49721753 7.96560993 25.97898307 8.3203125 27.4609375 C8.57338669 28.5033107 8.57338669 28.5033107 8.83157349 29.56674194 C9.60237059 32.84592484 10 35.60361872 10 39 C39.7 39 69.4 39 100 39 C100.99 29.43 101.98 19.86 103 10 C103.33 8.35 103.66 6.7 104 5 C106.34065586 8.51098378 107.60759491 12.15097897 109.00390625 16.09765625 C109.28725327 16.88772568 109.57060028 17.6777951 109.86253357 18.49180603 C110.7663672 21.01401474 111.66466989 23.53814867 112.5625 26.0625 C113.46487464 28.5900612 114.36839589 31.11720528 115.2731781 33.64390564 C115.83572403 35.21588653 116.39669437 36.7884323 116.95594788 38.36158752 C118.32398481 42.24469185 118.32398481 42.24469185 120 46 C120.28813813 48.66397068 120.52437047 51.31343895 120.72436523 53.984375 C120.78957367 54.81097122 120.8547821 55.63756744 120.92196655 56.48921204 C121.13815855 59.242513 121.3483785 61.99623677 121.55859375 64.75 C121.70895399 66.68028531 121.85968113 68.61054208 122.01075745 70.54077148 C122.40988539 75.65318032 122.8039608 80.76596681 123.19702148 85.87884521 C123.58990541 90.97805978 123.98751421 96.0769054 124.38476562 101.17578125 C125.06345188 109.89265529 125.73581553 118.6100019 126.40584373 127.32754517 C126.81671946 132.66061453 127.2378337 137.99270752 127.66845703 143.32421875 C127.76409439 144.52103271 127.85973175 145.71784668 127.95826721 146.95092773 C128.12572993 149.04054392 128.29605796 151.12993413 128.47032166 153.21899414 C128.94266821 159.15884566 129.08997816 165.04204884 129 171 C130.10408203 170.7834375 130.10408203 170.7834375 131.23046875 170.5625 C132.20628906 170.376875 133.18210937 170.19125 134.1875 170 C135.15042969 169.814375 136.11335937 169.62875 137.10546875 169.4375 C139.7934206 169.03122388 142.28771019 168.92066428 145 169 C141.70543907 175.79941298 138.27965205 182.41991605 134.296875 188.84375 C133.08721638 190.85498963 132.01827137 192.8866066 131 195 C131 193.68 131 192.36 131 191 C119.02972187 192.28637789 107.05946249 193.57293004 95.08922672 194.85970211 C89.53044088 195.45725297 83.9716487 196.05474475 78.4128418 196.65209961 C73.04415332 197.22902638 67.67548181 197.80611083 62.30682182 198.38330269 C60.26281775 198.60302866 58.21880766 198.82269868 56.17479134 199.04231071 C53.30279071 199.35089242 50.43081191 199.65967656 47.55883789 199.96850586 C46.72157669 200.05841797 45.88431549 200.14833008 45.02168274 200.2409668 C44.22679443 200.326483 43.43190613 200.41199921 42.6129303 200.50010681 C41.85087595 200.58048722 41.0888216 200.66086763 40.3036747 200.74368382 C38.70632342 200.92141159 37.11083763 201.11642751 35.51723289 201.32509518 C34.71913012 201.42687352 33.92102734 201.52865187 33.09873962 201.6335144 C32.3860942 201.72983595 31.67344877 201.82615749 30.93920803 201.92539787 C27.74767996 202.04817726 25.70777545 200.80154514 23.03125 199.16796875 C21.97276855 198.53842285 20.91428711 197.90887695 19.82373047 197.26025391 C18.72689941 196.57624512 17.63006836 195.89223633 16.5 195.1875 C15.35304472 194.49439387 14.20475647 193.80348898 13.05517578 193.11474609 C10.76688248 191.74000234 8.48804565 190.35264196 6.21191406 188.95751953 C1.80799886 186.27352804 -2.65814326 183.70222029 -7.125 181.125 C-9.44533775 179.78543171 -11.72900491 178.42332561 -14 177 C-14 176.67 -14 176.34 -14 176 C-10.04 175.67 -6.08 175.34 -2 175 C-2.53110622 168.40601095 -3.06425405 161.81219092 -3.59912109 155.21850586 C-3.77999155 152.98547596 -3.96034835 150.75240439 -4.14013672 148.51928711 C-5.30950183 134.00021476 -6.58130883 119.49675056 -8 105 C-8.62967868 98.53613926 -9.2515075 92.0716172 -9.85986328 85.60571289 C-10.03715858 83.7379085 -10.21751601 81.87039233 -10.40087891 80.00317383 C-12.15786466 62.06974817 -13.67521247 45.69917627 -8.25 28.25 C-7.90195313 27.06535156 -7.55390625 25.88070312 -7.1953125 24.66015625 C-6.49996373 22.29854579 -5.79509311 19.93971514 -5.08007812 17.58398438 C-3.3194859 11.74187455 -1.6629165 5.87056527 0 0 Z " fill="#383838" transform="translate(206,17)"/>
<path d="M0 0 C5.19137714 1.733962 9.55526343 4.74826279 14.125 7.6875 C14.91648437 8.19216797 15.70796875 8.69683594 16.5234375 9.21679688 C18.16312725 10.26276026 19.78790049 11.33241759 21.39819336 12.4230957 C23.98192399 14.10126078 23.98192399 14.10126078 27.01000977 15.11401367 C30.66713894 16.67889017 32.52887395 17.84593366 35 21 C37.19464231 28.67967389 36.68003901 37.02597901 36.6875 44.9375 C36.72883557 47.11142657 36.77501981 49.28526663 36.82617188 51.45898438 C36.96154846 57.97299786 36.99314979 64.4847339 37 71 C37.00243713 72.14994446 37.00487427 73.29988892 37.00738525 74.48468018 C37.02063653 81.32317386 37.01895059 88.16152087 37 95 C34.69 95 32.38 95 30 95 C30 99.29 30 103.58 30 108 C31.65 108.66 33.3 109.32 35 110 C35 116.27 35 122.54 35 129 C36.65 129 38.3 129 40 129 C40 135.27 40 141.54 40 148 C42.26875 147.67 44.5375 147.34 46.875 147 C52.97143052 146.11324647 58.84146126 145.88615795 65 146 C66.69260258 151.05306766 68.38322379 156.10679224 70.07202148 161.16113281 C70.64667375 162.88006445 71.2218647 164.59881611 71.79760742 166.31738281 C72.62560833 168.78924057 73.45166269 171.26174152 74.27734375 173.734375 C74.66332985 174.88459137 74.66332985 174.88459137 75.05711365 176.05804443 C76.15521648 179.3520076 77.18898194 182.62425514 78 186 C77.11699219 186.43570313 76.23398438 186.87140625 75.32421875 187.3203125 C67.79019251 191.0536069 60.34701459 194.9066633 53 199 C52.65388672 197.83984375 52.65388672 197.83984375 52.30078125 196.65625 C50.30177876 190.27208393 48.2433674 184.2681262 44 179 C41.00818583 177.50409291 39.3583794 177.57256989 36 178 C27.84212781 182.28659102 20.92522289 188.56295996 15.1640625 195.6796875 C14.77992188 196.11539063 14.39578125 196.55109375 14 197 C13.67 197 13.34 197 13 197 C12.90203125 196.2265625 12.8040625 195.453125 12.703125 194.65625 C11.74925803 188.01207316 10.59495559 182.70963534 7 177 C2.79640655 174.39653986 -1.21026789 174.17238643 -6 175 C-17.30339142 178.75973768 -26.64538004 184.73555293 -36 192 C-36.66 191.67 -37.32 191.34 -38 191 C-37.84015625 190.17242187 -37.6803125 189.34484375 -37.515625 188.4921875 C-36.17878109 179.43810828 -35.57242894 169.22263196 -40 161 C-41.9376012 158.71010768 -43.33781163 157.33109418 -46 156 C-60.68929245 155.24670295 -78.6070128 162.73600536 -90 172 C-90.66 171.67 -91.32 171.34 -92 171 C-84.96957335 157.75581982 -77.93707845 144.52159103 -70.5 131.5 C-65.68904298 123.07507403 -61.05536549 114.56510871 -56.5 106 C-51.44333877 96.49234287 -46.25413162 87.07435366 -40.9140625 77.72265625 C-36.3121235 69.62997815 -31.91981066 61.43059612 -27.54904175 53.21182251 C-23.16446488 44.97254535 -18.67959426 36.79906903 -14.0625 28.6875 C-10.39209215 22.23274065 -6.7237565 15.77952861 -3.1875 9.25 C-2.56230469 8.10015625 -1.93710938 6.9503125 -1.29296875 5.765625 C0.21175789 3.05587917 0.21175789 3.05587917 0 0 Z " fill="#373737" transform="translate(176,213)"/>
<path d="M0 0 C0.33 0 0.66 0 1 0 C1 5.94 1 11.88 1 18 C2.44500381 17.91230347 3.89000763 17.82460693 5.37879944 17.73425293 C19.04514639 16.90544195 32.71177216 16.08134686 46.37868595 15.26194 C53.4037294 14.84063069 60.42866639 14.41767799 67.45336914 13.99072266 C74.24179151 13.57813304 81.03048678 13.1703003 87.81936455 12.76527405 C90.39998157 12.6105517 92.98050607 12.4542774 95.56093025 12.29637146 C121.50935085 10.71045311 121.50935085 10.71045311 134 11 C134.0292305 12.16906891 134.058461 13.33813782 134.08857727 14.54263306 C134.14150027 16.59292383 134.19707668 18.64320362 134.27026367 20.69287109 C134.2922324 22.46407019 134.14874263 24.23492083 134 26 C133.01 26.66 132.02 27.32 131 28 C132.40583054 29.50763954 133.81182792 31.01512374 135.21850586 32.52197266 C136.45952121 33.85319288 137.69858293 35.18623674 138.93579102 36.52099609 C142.34463037 40.1910017 145.7867602 43.81702225 149.3046875 47.3828125 C149.99554443 48.09244141 150.68640137 48.80207031 151.39819336 49.53320312 C152.74124288 50.91082174 154.09603406 52.27710508 155.46313477 53.63085938 C156.37663696 54.57541992 156.37663696 54.57541992 157.30859375 55.5390625 C158.12541626 56.36204834 158.12541626 56.36204834 158.95874023 57.20166016 C160 59 160 59 159.8684082 61.33251953 C158.22728214 66.37354944 155.42201227 70.85384428 152.79052734 75.43066406 C151.75045361 77.24920687 150.73649962 79.08079802 149.72265625 80.9140625 C149.06145074 82.07380455 148.39874067 83.23269037 147.734375 84.390625 C147.13850586 85.44282227 146.54263672 86.49501953 145.92871094 87.57910156 C144 90 144 90 141.51586914 90.98120117 C138.60320504 91.00296489 137.42474535 90.49922255 135.01171875 88.91015625 C134.30595703 88.45576172 133.60019531 88.00136719 132.87304688 87.53320312 C132.15181641 87.04787109 131.43058594 86.56253906 130.6875 86.0625 C129.94693359 85.58103516 129.20636719 85.09957031 128.44335938 84.60351562 C126.62023585 83.41554481 124.80891959 82.20948912 123 81 C125.66666667 75.66666667 128.33333333 70.33333333 131 65 C130.41734375 64.74605469 129.8346875 64.49210937 129.234375 64.23046875 C126.75811967 62.86679667 125.19479374 61.35774797 123.25 59.3125 C120.72296354 56.72078619 118.18699116 54.22913949 115.4375 51.875 C110.57418041 47.70089337 105.93475847 43.28876455 101.27905273 38.88623047 C99.53233748 37.24271481 97.77013058 35.61821029 96 34 C95.31164062 33.35933594 94.62328125 32.71867187 93.9140625 32.05859375 C91.15361045 30.53189476 89.22774211 30.92949318 86.125 31.3125 C81.29919665 31.88641267 76.61159967 32.03488103 71.74560547 32.02026367 C70.48295868 32.0173381 69.22031189 32.01441254 67.91940308 32.01139832 C66.95600006 32.00763687 65.99259705 32.00387543 65 32 C65.18792114 32.78847321 65.37584229 33.57694641 65.56945801 34.38931274 C67.34210919 41.8322369 69.10828605 49.2766538 70.86727142 56.72281837 C71.77173679 60.55060339 72.67866472 64.37776926 73.59130859 68.20361328 C74.47251177 71.89806364 75.34713068 75.59401688 76.2172699 79.2910881 C76.54983609 80.6989795 76.88474241 82.10632031 77.22206116 83.5130806 C77.6953103 85.48851518 78.15935926 87.46614689 78.62304688 89.44384766 C78.88952026 90.56747711 79.15599365 91.69110657 79.43054199 92.8487854 C80.33623759 97.8606408 80.50752604 101.73379357 78.21166992 106.3371582 C77.62557198 107.532882 77.62557198 107.532882 77.02763367 108.75276184 C76.59956924 109.59360825 76.17150482 110.43445465 75.73046875 111.30078125 C75.29366287 112.17776169 74.85685699 113.05474213 74.40681458 113.95829773 C73.4836609 115.80430683 72.55454627 117.6473455 71.61987305 119.48754883 C70.18754129 122.31241857 68.77915563 125.14833073 67.37304688 127.98632812 C66.47275758 129.77935118 65.5711114 131.57169372 64.66796875 133.36328125 C64.24597702 134.21424881 63.82398529 135.06521637 63.38920593 135.94197083 C62.98901749 136.72335922 62.58882904 137.50474762 62.17651367 138.30981445 C61.82787766 139.00009232 61.47924164 139.69037018 61.12004089 140.40156555 C60 142 60 142 57 143 C54.82348633 142.47094727 54.82348633 142.47094727 52.33203125 141.56640625 C51.43935547 141.24736328 50.54667969 140.92832031 49.62695312 140.59960938 C48.69818359 140.25736328 47.76941406 139.91511719 46.8125 139.5625 C45.87212891 139.22412109 44.93175781 138.88574219 43.96289062 138.53710938 C41.63885258 137.69951191 39.31821765 136.85354717 37 136 C38.43211347 130.56050088 40.15473998 125.43939543 42.55078125 120.34375 C43.00130859 119.38339844 43.45183594 118.42304688 43.91601562 117.43359375 C44.8506442 115.47022016 45.80135112 113.51442365 46.76757812 111.56640625 C47.43370117 110.12587891 47.43370117 110.12587891 48.11328125 108.65625 C48.52360596 107.80869141 48.93393066 106.96113281 49.35668945 106.08789062 C51.13049397 97.57362893 46.53803362 88.03989104 43.8671875 80.0625 C43.47048859 78.86061035 43.07378967 77.6587207 42.66506958 76.42041016 C41.62028417 73.25690417 40.57085304 70.09502972 39.51855469 66.934021 C38.02836847 62.45568917 36.54432862 57.97533296 35.06350708 53.49389648 C34.27658437 51.11343572 33.48653015 48.73400748 32.69308472 46.35571289 C32.33916656 45.28699951 31.98524841 44.21828613 31.62060547 43.1171875 C31.30686981 42.17472168 30.99313416 41.23225586 30.66989136 40.26123047 C30 38 30 38 30 36 C28.78183594 36.144375 27.56367188 36.28875 26.30859375 36.4375 C24.68491986 36.62520796 23.06122057 36.8126963 21.4375 37 C20.23770508 37.14308594 20.23770508 37.14308594 19.01367188 37.2890625 C18.22412109 37.37929688 17.43457031 37.46953125 16.62109375 37.5625 C15.9036499 37.64628906 15.18620605 37.73007812 14.44702148 37.81640625 C11.3062472 38.05205049 8.14960177 38 5 38 C5 31.73 5 25.46 5 19 C3.35 19 1.7 19 0 19 C0 12.73 0 6.46 0 0 Z " fill="#828282" transform="translate(211,323)"/>
<path d="M0 0 C8.58 0 17.16 0 26 0 C27.53239929 15.12836743 29.04731147 30.25847989 30.48690796 45.39599609 C30.6199001 46.79094665 30.75386143 48.18580516 30.88882446 49.58056641 C31.07841774 51.54302624 31.26389481 53.50588239 31.44921875 55.46875 C31.55580811 56.58701172 31.66239746 57.70527344 31.7722168 58.85742188 C31.99410321 61.91864576 32.01557827 64.93216547 32 68 C23.1669282 68.39558899 14.33368438 68.78702857 5.50020695 69.17345428 C1.39661359 69.35309298 -2.70691162 69.53405647 -6.81030273 69.71826172 C-10.78484343 69.89663033 -14.75953445 70.07123963 -18.73434639 70.24345398 C-20.23591349 70.30913273 -21.73742616 70.37607082 -23.23887444 70.44441223 C-33.83287745 70.92544772 -44.39533305 71.07836612 -55 71 C-55.26259661 63.46285451 -55.52350048 55.92565198 -55.78230286 48.38837528 C-55.90255471 44.88771284 -56.0233677 41.38707172 -56.14550781 37.88647461 C-56.28622353 33.85275986 -56.42441808 29.81896203 -56.5625 25.78515625 C-56.60624756 24.54105484 -56.64999512 23.29695343 -56.69506836 22.01515198 C-56.91020976 15.67213314 -57.04769673 9.34664615 -57 3 C-45.33821061 1.76781093 -33.71144947 1.90546812 -22 2 C-22.66 5.3 -23.32 8.6 -24 12 C-22.48148437 11.855625 -20.96296875 11.71125 -19.3984375 11.5625 C-17.39063852 11.37485524 -15.38282526 11.18736327 -13.375 11 C-12.37597656 10.90460938 -11.37695312 10.80921875 -10.34765625 10.7109375 C-5.54861994 10.26599374 -0.82618926 9.86822691 4 10 C2.68 6.7 1.36 3.4 0 0 Z " fill="#C6C6C6" transform="translate(299,129)"/>
<path d="M0 0 C0 3.96 0 7.92 0 12 C-2.475 12.99 -2.475 12.99 -5 14 C-5 20.6 -5 27.2 -5 34 C-7.34194304 35.17097152 -8.96167017 35.22832856 -11.57461548 35.38600159 C-12.53869827 35.44627533 -13.50278107 35.50654907 -14.49607849 35.56864929 C-15.55778763 35.63050919 -16.61949677 35.69236908 -17.71337891 35.75610352 C-19.38701759 35.85873505 -19.38701759 35.85873505 -21.09446716 35.96343994 C-24.80491076 36.18971811 -28.51570586 36.40951345 -32.2265625 36.62890625 C-34.80855768 36.78417297 -37.39053788 36.93968893 -39.97250366 37.09544373 C-45.40142354 37.42189985 -50.83051809 37.74520686 -56.25976562 38.06616211 C-62.49801392 38.43500246 -68.73584315 38.81037478 -74.97349036 39.18923432 C-81.00025214 39.55506773 -87.02732656 39.91544512 -93.05454636 40.27366447 C-95.60362627 40.42573138 -98.15262218 40.57921386 -100.70152664 40.7341938 C-113.82319431 41.52959628 -126.85259309 42.19491588 -140 42 C-140 36.06 -140 30.12 -140 24 C-141.98 23.34 -143.96 22.68 -146 22 C-146 17.71 -146 13.42 -146 9 C-127.85003666 7.82428537 -109.69994288 6.65061145 -91.54967308 5.47963715 C-83.12207739 4.93587482 -74.69452932 4.39139332 -66.26708984 3.84521484 C-58.92120085 3.36913299 -51.57522585 2.8944045 -44.22914469 2.4212966 C-40.33996807 2.17077555 -36.45083767 1.91957996 -32.56180954 1.66676331 C-28.89959519 1.42871276 -25.23726834 1.19247519 -21.57484818 0.95761299 C-19.59351632 0.83008534 -17.61230763 0.70064873 -15.63110352 0.57115173 C-13.85175919 0.45756065 -13.85175919 0.45756065 -12.03646851 0.3416748 C-11.00959112 0.27530571 -9.98271374 0.20893661 -8.92471886 0.14055634 C-5.95287353 -0.00226481 -2.9752752 0 0 0 Z " fill="#CBCBCB" transform="translate(352,299)"/>
<path d="M0 0 C0.80291977 0.00133942 1.60583954 0.00267883 2.43309021 0.00405884 C3.04112991 0.00578094 3.64916962 0.00750305 4.27563477 0.00927734 C6.27758789 8.41748047 8.27954102 16.82568359 10.28149414 25.23388672 C10.49887238 26.14639191 10.71625061 27.05889709 10.94021606 27.99905396 C11.38126086 29.85242152 11.82142104 31.70599981 12.26071167 33.55978394 C13.39425389 38.33814441 14.54412944 43.11160581 15.72338867 47.87890625 C15.95564651 48.82731888 16.18790436 49.77573151 16.42720032 50.75288391 C16.86852563 52.55324775 17.31513848 54.35232685 17.76799011 56.14982605 C19.95421912 65.11872435 19.17778983 70.11562043 15.00610352 78.31005859 C14.56929764 79.18703903 14.13249176 80.06401947 13.68244934 80.96757507 C12.75929567 82.81358418 11.83018104 84.65662285 10.89550781 86.49682617 C9.46317605 89.32169591 8.05479039 92.15760808 6.64868164 94.99560547 C5.74839234 96.78862853 4.84674617 98.58097107 3.94360352 100.37255859 C3.31061592 101.64900993 3.31061592 101.64900993 2.6648407 102.95124817 C2.26465225 103.73263657 1.86446381 104.51402496 1.45214844 105.3190918 C0.92919441 106.35450859 0.92919441 106.35450859 0.39567566 107.4108429 C-0.72436523 109.00927734 -0.72436523 109.00927734 -3.72436523 110.00927734 C-5.90087891 109.48022461 -5.90087891 109.48022461 -8.39233398 108.57568359 C-9.73134766 108.09711914 -9.73134766 108.09711914 -11.09741211 107.60888672 C-12.02618164 107.26664062 -12.95495117 106.92439453 -13.91186523 106.57177734 C-14.85223633 106.23339844 -15.79260742 105.89501953 -16.76147461 105.54638672 C-19.08551266 104.70878925 -21.40614759 103.86282451 -23.72436523 103.00927734 C-22.29225176 97.56977822 -20.56962525 92.44867277 -18.17358398 87.35302734 C-17.72305664 86.39267578 -17.2725293 85.43232422 -16.80834961 84.44287109 C-15.87372104 82.4794975 -14.92301412 80.523701 -13.95678711 78.57568359 C-13.51270508 77.61533203 -13.06862305 76.65498047 -12.61108398 75.66552734 C-12.20075928 74.81796875 -11.79043457 73.97041016 -11.36767578 73.09716797 C-9.63580184 64.78417304 -14.02196176 55.61481243 -16.67358398 47.83349609 C-17.44669835 45.51915248 -18.21947501 43.20469603 -18.99194336 40.89013672 C-20.2055321 37.27649806 -21.42289893 33.66422171 -22.64648438 30.05395508 C-23.832606 26.54636636 -25.00398997 23.03412425 -26.17358398 19.52099609 C-26.54432541 18.44073654 -26.91506683 17.36047699 -27.29704285 16.2474823 C-27.63101578 15.23905777 -27.96498871 14.23063324 -28.30908203 13.19165039 C-28.60727341 12.30914108 -28.90546478 11.42663177 -29.21269226 10.51737976 C-29.78920974 7.69142461 -29.47149534 5.77215729 -28.72436523 3.00927734 C-19.25550376 0.76205907 -9.72150288 -0.02109388 0 0 Z " fill="#BABABA" transform="translate(271.724365234375,355.99072265625)"/>
<path d="M0 0 C0.79792969 0.84175781 1.59585938 1.68351562 2.41796875 2.55078125 C5.99254633 6.23623938 9.61445927 9.72036739 13.51171875 13.05859375 C17.6064995 16.5880503 21.59479562 20.23888197 25.60546875 23.86328125 C22.11681976 27.49353592 18.51735632 30.57817659 14.48046875 33.61328125 C6.51531366 39.65891598 -1.39256287 45.69876718 -8.39453125 52.86328125 C-11.8775814 51.33073918 -14.71515752 49.19527081 -17.7109375 46.88671875 C-19.49340744 45.60355941 -19.49340744 45.60355941 -22.39453125 45.86328125 C-23.82476951 39.67163724 -25.24823278 33.47846398 -26.66699219 27.28417969 C-27.15045739 25.17705012 -27.63547359 23.0702758 -28.12207031 20.96386719 C-28.8211399 17.93646786 -29.51462553 14.90783569 -30.20703125 11.87890625 C-30.42576904 10.9371051 -30.64450684 9.99530396 -30.86987305 9.02496338 C-31.07008057 8.14435242 -31.27028809 7.26374146 -31.4765625 6.35644531 C-31.65421143 5.58367249 -31.83186035 4.81089966 -32.01489258 4.01470947 C-32.39453125 1.86328125 -32.39453125 1.86328125 -32.39453125 -2.13671875 C-28.3336914 -2.53139211 -24.27083988 -2.89899864 -20.20703125 -3.26171875 C-19.05654297 -3.37386719 -17.90605469 -3.48601562 -16.72070312 -3.6015625 C-15.60888672 -3.69824219 -14.49707031 -3.79492188 -13.3515625 -3.89453125 C-12.3303833 -3.98879395 -11.3092041 -4.08305664 -10.25708008 -4.18017578 C-5.85942479 -4.11341394 -3.25605199 -2.90548196 0 0 Z " fill="#383838" transform="translate(308.39453125,357.13671875)"/>
<path d="M0 0 C2.83613622 2.7662041 5.39002146 5.81344683 7.95703125 8.828125 C10.00967527 11.15250398 12.16564672 13.32440594 14.375 15.5 C17.91305603 18.98967236 21.2370232 22.59385693 24.46484375 26.37109375 C25.55129098 27.62607573 26.70125655 28.82625655 27.875 30 C27.39993709 36.09089041 23.64455958 41.24937135 20.66552734 46.43066406 C19.62545361 48.24920687 18.61149962 50.08079802 17.59765625 51.9140625 C16.93645074 53.07380455 16.27374067 54.23269037 15.609375 55.390625 C14.71557129 56.9689209 14.71557129 56.9689209 13.80371094 58.57910156 C11.875 61 11.875 61 9.39086914 61.98120117 C6.47820504 62.00296489 5.29974535 61.49922255 2.88671875 59.91015625 C2.18095703 59.45576172 1.47519531 59.00136719 0.74804688 58.53320312 C0.02681641 58.04787109 -0.69441406 57.56253906 -1.4375 57.0625 C-2.17806641 56.58103516 -2.91863281 56.09957031 -3.68164062 55.60351562 C-5.50476415 54.41554481 -7.31608041 53.20948912 -9.125 52 C-6.45833333 46.66666667 -3.79166667 41.33333333 -1.125 36 C-1.99898438 35.61908203 -1.99898438 35.61908203 -2.890625 35.23046875 C-5.36688033 33.86679667 -6.93020626 32.35774797 -8.875 30.3125 C-11.40203646 27.72078619 -13.93800884 25.22913949 -16.6875 22.875 C-20.85763241 19.28034586 -24.90172672 15.55639738 -28.9375 11.8125 C-29.5962915 11.20583496 -30.25508301 10.59916992 -30.93383789 9.97412109 C-33.9627092 7.15444642 -36.81297176 4.4637449 -39.125 1 C-34.14648115 -0.38183726 -29.0683105 -0.62604164 -23.9375 -1.0625 C-22.93396484 -1.15337891 -21.93042969 -1.24425781 -20.89648438 -1.33789062 C-4.33030977 -2.77139825 -4.33030977 -2.77139825 0 0 Z " fill="#BABABA" transform="translate(343.125,352)"/>
<path d="M0 0 C5.99408749 1.99802916 10.97547116 4.83117226 14.4375 10.25 C16.15336793 18.63868765 13.19521004 24.21751869 8.63671875 31.21484375 C4.41297257 37.35802406 -0.04511284 43.33416455 -4.5078125 49.3046875 C-8.07863962 54.08470429 -11.54890277 58.93124477 -14.97998047 63.81225586 C-16.55255643 66.03718229 -18.06875459 68.06875459 -20 70 C-20.47953125 69.44441406 -20.9590625 68.88882813 -21.453125 68.31640625 C-25.51803004 64.61933771 -30.35095478 62.25014832 -35.15234375 59.62304688 C-35.90128906 59.19958984 -36.65023438 58.77613281 -37.421875 58.33984375 C-38.10862305 57.96206787 -38.79537109 57.58429199 -39.50292969 57.19506836 C-40.24397949 56.60350952 -40.24397949 56.60350952 -41 56 C-41 51.82424945 -38.70019885 49.97577624 -36.0625 47 C-35.05549892 45.83375682 -34.04899667 44.66708276 -33.04296875 43.5 C-32.02877979 42.33321688 -31.01446047 41.16654706 -30 40 C-28.27656699 38.01165661 -26.57204074 36.01130754 -24.875 34 C-23.78832031 32.7315625 -23.78832031 32.7315625 -22.6796875 31.4375 C-19.75658068 27.19559615 -19.93006876 23.44001518 -20.1875 18.4375 C-20.22852602 13.36394885 -20.22852602 13.36394885 -18.3125 10.3125 C-15.63672156 8.79381494 -14.02985373 8.66334959 -11 9 C-10.896875 7.88625 -10.79375 6.7725 -10.6875 5.625 C-10.460625 4.42875 -10.23375 3.2325 -10 2 C-6.24171538 -0.50552308 -4.46348506 -0.37195709 0 0 Z " fill="#373737" transform="translate(400,189)"/>
<path d="M0 0 C2.12750156 0.22773256 4.25208056 0.48290818 6.375 0.75 C7.55835938 0.88921875 8.74171875 1.0284375 9.9609375 1.171875 C10.96382812 1.44515625 11.96671875 1.7184375 13 2 C14.01367188 3.81298828 14.01367188 3.81298828 15 6 C15.90992995 7.29517041 16.85209022 8.56812061 17.8203125 9.8203125 C18.35527344 10.52027344 18.89023438 11.22023437 19.44140625 11.94140625 C20.57049297 13.40581339 21.70071517 14.8693457 22.83203125 16.33203125 C23.36441406 17.02941406 23.89679688 17.72679687 24.4453125 18.4453125 C25.18031982 19.39688232 25.18031982 19.39688232 25.93017578 20.36767578 C27 22 27 22 27 24 C27.66 24.33 28.32 24.66 29 25 C28.02675781 25.53109375 27.05351562 26.0621875 26.05078125 26.609375 C20.7200243 29.65398763 15.8364611 33.32429709 10.87695312 36.9296875 C9.78350586 37.71472656 9.78350586 37.71472656 8.66796875 38.515625 C8.01078857 38.99290039 7.3536084 39.47017578 6.67651367 39.96191406 C5 41 5 41 3 41 C3.33 41.825 3.66 42.65 4 43.5 C5.22907649 47.8017677 5.49644339 50.53200949 5 55 C2.875 58.0625 2.875 58.0625 0 60 C-4.29120806 60 -6.81545972 58.81709332 -10 56 C-10.804375 56.495 -10.804375 56.495 -11.625 57 C-14.81308648 58.3423522 -16.56464769 58.61836342 -20 58 C-24.43974489 54.15993629 -27.55868788 49.54980338 -28.5625 43.75 C-27.62766875 37.51779165 -23.06504848 33.95636172 -18.625 29.75 C-15.94635569 25.21690963 -16.16513308 20.1769222 -16 15 C-13.36 15.66 -10.72 16.32 -8 17 C-8.48578543 13.87709365 -8.9986012 11.00419641 -10 8 C-5.91621717 8.74250597 -1.98060777 9.82923301 2 11 C1.67 10.113125 1.34 9.22625 1 8.3125 C0.07825699 5.25922627 -0.08552224 3.13759724 0 0 Z " fill="#373737" transform="translate(136,199)"/>
<path d="M0 0 C2.6855594 2.6855594 3.06049974 5.37621328 4 9 C5.65 8.67 7.3 8.34 9 8 C9.73334429 4.02245872 9.73334429 4.02245872 10 0 C15.87084714 1.36986433 20.25323539 3.05891758 23.95703125 7.9765625 C25.87035451 11.68855295 26.08669158 14.98488629 25 19 C23.34567791 21.732138 21.49123253 23.99281524 19 26 C18.34 26 17.68 26 17 26 C16.67 24.35 16.34 22.7 16 21 C12.39007621 21.65585189 12.39007621 21.65585189 9 23 C7.32345271 22.72057545 5.65391846 22.39171753 4 22 C2.68 24.64 1.36 27.28 0 30 C-4 26 -4 26 -5.375 24.1875 C-7.06575104 22.66631571 -7.06575104 22.66631571 -9.9375 23.375 C-10.948125 23.58125 -11.95875 23.7875 -13 24 C-15.375 23.5625 -15.375 23.5625 -17 23 C-17.33 24.98 -17.66 26.96 -18 29 C-22.26672384 28.52591957 -24.2455048 26.11692878 -27 23 C-29.18247893 20.12309595 -28.99359314 18.79818397 -28.875 15.0625 C-28.22235149 11.06502788 -26.99148624 8.8340396 -24 6 C-18.12459016 2 -18.12459016 2 -15 2 C-14.34 4.31 -13.68 6.62 -13 9 C-10.525 9.495 -10.525 9.495 -8 10 C-7.34 7.03 -6.68 4.06 -6 1 C-3.525 1.495 -3.525 1.495 -1 2 C-0.67 1.34 -0.34 0.68 0 0 Z " fill="#3C3C3C" transform="translate(297,223)"/>
<path d="M0 0 C3.71410677 3.17057895 8.16947129 7.02394106 8.80078125 12.10546875 C8.98091621 17.61380627 8.35163624 21.9400005 4.5625 26.1875 C-0.82895142 30.7702337 -6.64489885 33.39221686 -13.4375 35.1875 C-14.6440625 35.5278125 -14.6440625 35.5278125 -15.875 35.875 C-25.26085207 37.01961611 -33.3915398 35.94849709 -41.75 31.375 C-45.65334514 28.19785861 -48.81337735 25.05986795 -50.4375 20.1875 C-50.94046479 14.05132962 -50.56026926 11.05025348 -46.4375 6.1875 C-34.67341036 -6.59955396 -14.84358334 -7.82661667 0 0 Z M-19.4375 0.1875 C-19.7675 0.8475 -20.0975 1.5075 -20.4375 2.1875 C-22.9125 1.6925 -22.9125 1.6925 -25.4375 1.1875 C-26.0975 4.1575 -26.7575 7.1275 -27.4375 10.1875 C-29.9125 9.6925 -29.9125 9.6925 -32.4375 9.1875 C-33.0975 6.8775 -33.7575 4.5675 -34.4375 2.1875 C-40.25178194 3.81009031 -43.88139148 5.9052075 -47.3125 10.9375 C-48.73361187 15.0429343 -48.70966787 18.0465509 -47.4375 22.1875 C-45.32738018 25.42301706 -43.65658826 27.04144116 -40.4375 29.1875 C-39.4475 29.1875 -38.4575 29.1875 -37.4375 29.1875 C-37.1075 27.2075 -36.7775 25.2275 -36.4375 23.1875 C-35.53 23.373125 -34.6225 23.55875 -33.6875 23.75 C-30.58724046 24.38823567 -30.58724046 24.38823567 -28.25 23.5625 C-27.651875 23.43875 -27.05375 23.315 -26.4375 23.1875 C-24.9375 24.375 -24.9375 24.375 -23.4375 26.1875 C-22.715625 26.909375 -21.99375 27.63125 -21.25 28.375 C-20.651875 28.973125 -20.05375 29.57125 -19.4375 30.1875 C-18.1175 27.5475 -16.7975 24.9075 -15.4375 22.1875 C-14.48875 22.39375 -13.54 22.6 -12.5625 22.8125 C-11.015625 22.998125 -11.015625 22.998125 -9.4375 23.1875 C-8.7775 22.5275 -8.1175 21.8675 -7.4375 21.1875 C-6.1175 21.1875 -4.7975 21.1875 -3.4375 21.1875 C-2.9425 23.6625 -2.9425 23.6625 -2.4375 26.1875 C1.41286851 24.67485523 3.44598422 22.74022291 5.5625 19.1875 C6.4416013 15.21664414 6.39399262 11.81910816 4.52734375 8.15625 C0.80001533 3.25569564 -3.56059094 1.55877878 -9.4375 0.1875 C-9.375625 1.115625 -9.31375 2.04375 -9.25 3 C-9.4375 6.1875 -9.4375 6.1875 -10.75 8.0625 C-12.4375 9.1875 -12.4375 9.1875 -15.4375 9.1875 C-16.4275 6.2175 -17.4175 3.2475 -18.4375 0.1875 C-18.7675 0.1875 -19.0975 0.1875 -19.4375 0.1875 Z " fill="#C6C6C6" transform="translate(316.4375,222.8125)"/>
<path d="M0 0 C5.14595054 0.57618751 9.55078055 1.74743278 14.4375 3.5625 C15.67371094 4.01753906 16.90992188 4.47257812 18.18359375 4.94140625 C19.11300781 5.29074219 20.04242188 5.64007813 21 6 C21 10.60815791 19.89907851 12.65572036 17.75 16.6875 C17.14671875 17.84636719 16.5434375 19.00523437 15.921875 20.19921875 C14 23 14 23 11.953125 23.95703125 C10 24 10 24 7 23 C6.67 24.98 6.34 26.96 6 29 C6.72469482 29.12238037 7.44938965 29.24476074 8.19604492 29.37084961 C10.9796022 29.99542315 13.2744943 30.88057481 15.86328125 32.06640625 C17.19262695 32.6706543 17.19262695 32.6706543 18.54882812 33.28710938 C19.46083984 33.70798828 20.37285156 34.12886719 21.3125 34.5625 C22.24384766 34.98724609 23.17519531 35.41199219 24.13476562 35.84960938 C26.4253672 36.89506343 28.71363659 37.94531756 31 39 C31 39.33 31 39.66 31 40 C17.99533484 40.60749834 5.02106078 41.18780376 -8 41 C-6.50640515 36.15713185 -4.54966433 31.68649104 -2.375 27.125 C-2.05015625 26.43664062 -1.7253125 25.74828125 -1.390625 25.0390625 C-0.59676528 23.35794781 0.20119558 21.67877079 1 20 C-1.64 20 -4.28 20 -7 20 C-6.29937517 15.43263559 -4.68729793 11.4300495 -2.9375 7.1875 C-2.51500977 6.14819336 -2.51500977 6.14819336 -2.08398438 5.08789062 C-1.39325027 3.39032376 -0.69716272 1.69493688 0 0 Z " fill="#363636" transform="translate(247,459)"/>
<path d="M0 0 C3.95788424 1.45778425 7.44334866 3.34040527 11.0625 5.5 C14.33140041 7.4456759 17.5688524 9.35436566 21 11 C20.34 11 19.68 11 19 11 C18.74089844 11.69480469 18.48179687 12.38960938 18.21484375 13.10546875 C16.86632501 16.31849894 15.28285215 19.28246041 13.5625 22.3125 C12.96566406 23.38113281 12.36882812 24.44976562 11.75390625 25.55078125 C10.88572266 26.76314453 10.88572266 26.76314453 10 28 C9.01 28 8.02 28 7 28 C6.34 29.32 5.68 30.64 5 32 C5.72445313 32.59167969 6.44890625 33.18335938 7.1953125 33.79296875 C12.14804091 37.84099877 17.09687934 41.89197999 22 46 C18.15729915 47.28090028 16.44707968 46.4844352 12.58203125 45.34765625 C10.70161133 44.80141602 10.70161133 44.80141602 8.78320312 44.24414062 C7.45958044 43.8504452 6.13601342 43.45656258 4.8125 43.0625 C3.47744339 42.67173989 2.14215919 42.28175645 0.80664062 41.89257812 C-2.464563 40.93601678 -5.73321685 39.9715305 -9 39 C-7.47446334 35.11707743 -5.75776387 31.41209809 -3.875 27.6875 C-3.33617187 26.61886719 -2.79734375 25.55023438 -2.2421875 24.44921875 C-1.62730469 23.23685547 -1.62730469 23.23685547 -1 22 C-4.465 20.02 -4.465 20.02 -8 18 C-7.39733215 13.49272353 -5.63400206 10.1412037 -3.4375 6.1875 C-2.9434668 5.2912793 -2.9434668 5.2912793 -2.43945312 4.37695312 C-1.63226733 2.91466002 -0.81695083 1.4568601 0 0 Z " fill="#363636" transform="translate(333,404)"/>
<path d="M0 0 C-0.36925404 6.15423406 -1.82877227 8.72703501 -6 13 C-11.10974883 15.55487442 -19.18467059 14.78966557 -24.5625 13.28125 C-28.70787876 11.33417816 -31.56436827 8.95790156 -34 5 C-34 4.01 -34 3.02 -34 2 C-31.24958883 1.24090658 -28.6872309 0.83164096 -25.83984375 0.68359375 C-25.0506958 0.64161865 -24.26154785 0.59964355 -23.44848633 0.55639648 C-22.2055481 0.49754272 -22.2055481 0.49754272 -20.9375 0.4375 C-20.09147217 0.3950415 -19.24544434 0.35258301 -18.3737793 0.30883789 C-12.24654726 0.01767867 -6.13434377 -0.12406538 0 0 Z " fill="#E5E5E5" transform="translate(300,153)"/>
<path d="M0 0 C4.76409319 3.13496705 8.16191458 6.48574374 10 12 C10.82993166 17.57091628 10.17664463 22.23871591 7.3828125 27.15234375 C2.6674028 33.45287704 -4.62857925 36.78583541 -12 39 C-15.6887831 39.52250559 -19.2795527 39.56252853 -23 39.5 C-23.92039062 39.51546875 -24.84078125 39.5309375 -25.7890625 39.546875 C-34.30823132 39.49887968 -41.68201505 37.46064302 -48 31.5625 C-52.26380878 26.81713164 -53.53726116 22.68459706 -53.37890625 16.33984375 C-52.48777808 10.83689762 -49.08367361 7.08367361 -45.25 3.25 C-32.50356317 -5.57445627 -13.83852146 -7.71717892 0 0 Z M-48.80078125 10.4140625 C-51.5367168 14.03227042 -51.43414121 17.62582252 -51 22 C-48.95154553 28.02486607 -44.66616364 31.98751017 -39.1640625 35.0078125 C-28.69388531 39.71710617 -17.63987213 38.75195491 -7 35 C-1.36867352 32.30810217 3.63458587 29.41392708 7 24 C8.35772166 19.92683502 8.51865848 16.2588436 8 12 C4.56395234 5.12790468 -0.89099785 0.95943928 -8.06640625 -1.44140625 C-23.1678346 -5.80404111 -38.69804855 -1.73042983 -48.80078125 10.4140625 Z " fill="#4A4A4A" transform="translate(317,221)"/>
<path d="M0 0 C6.58786901 1.59267163 13.15063671 3.27240513 19.6875 5.0625 C20.86699219 5.38347656 22.04648437 5.70445313 23.26171875 6.03515625 C26 7 26 7 27 9 C19.02509872 10.32915021 11.05813281 10.08801359 3 10 C0 3.375 0 3.375 0 0 Z " fill="#DADADA" transform="translate(244,102)"/>
<path d="M0 0 C-0.45082469 1.46067199 -0.91093537 2.91848032 -1.375 4.375 C-1.75785156 5.59316406 -1.75785156 5.59316406 -2.1484375 6.8359375 C-3 9 -3 9 -5 11 C-7.91952568 10.98251781 -10.72297885 10.86055367 -13.625 10.625 C-14.42679687 10.56828125 -15.22859375 10.5115625 -16.0546875 10.453125 C-18.03715498 10.31152018 -20.01869051 10.15697741 -22 10 C-18.34193269 6.88776996 -14.24429815 5.18449804 -9.875 3.3125 C-9.14667969 2.99216797 -8.41835938 2.67183594 -7.66796875 2.34179688 C-2.26535848 0 -2.26535848 0 0 0 Z " fill="#DBDBDB" transform="translate(320,99)"/>
<path d="M0 0 C3 2 3 2 4 5 C4.77744379 11.46170496 3.94414994 16.72999175 0 22 C-5.0897301 27.07800261 -12.81431164 31.95378174 -20.19140625 32.01953125 C-22.125 31.75 -22.125 31.75 -25 31 C-25 30.67 -25 30.34 -25 30 C-24.24976563 29.85304688 -23.49953125 29.70609375 -22.7265625 29.5546875 C-14.3809846 27.72580771 -5.36490139 25.2072465 -0.375 17.6875 C1.84023313 11.74664752 1.57947076 6.12044919 0 0 Z " fill="#515151" transform="translate(323,228)"/>
<path d="M0 0 C0.72703125 0.20496094 1.4540625 0.40992188 2.203125 0.62109375 C9.48420168 2.57204891 16.47612071 3.61313387 24 4 C24 4.33 24 4.66 24 5 C21.3118751 5.08164159 18.626277 5.14079668 15.9375 5.1875 C14.80924805 5.22520508 14.80924805 5.22520508 13.65820312 5.26367188 C8.33368144 5.33282151 4.75653566 4.40669334 0 2 C0 1.34 0 0.68 0 0 Z " fill="#444444" transform="translate(276,255)"/>
<path d="M0 0 C3 2 3 2 3.8125 4.9375 C4 8 4 8 2 11 C1.34 7.37 0.68 3.74 0 0 Z " fill="#545454" transform="translate(323,228)"/>
</svg>
